<svg viewBox="0 0 900 620" xmlns="http://www.w3.org/2000/svg">
  <defs>
    <linearGradient id="bg" x1="0" y1="0" x2="0" y2="1">
      <stop offset="0" stop-color="#2f2d55"/>
      <stop offset="1" stop-color="#17172a"/>
    </linearGradient>
    <linearGradient id="path" x1="0" y1="0" x2="1" y2="0">
      <stop offset="0" stop-color="#8ee7ff"/>
      <stop offset="1" stop-color="#ffcf74"/>
    </linearGradient>
    <filter id="glow"><feGaussianBlur stdDeviation="6" result="b"/><feMerge><feMergeNode in="b"/><feMergeNode in="SourceGraphic"/></feMerge></filter>
  </defs>
  <rect width="900" height="620" rx="32" fill="url(#bg)"/>
  <path d="M120 520 C 180 460, 180 360, 270 330 S 390 240, 450 250 S 560 320, 630 250 S 740 110, 810 100" stroke="url(#path)" stroke-width="18" fill="none" stroke-linecap="round" filter="url(#glow)"/>
  <g font-family="Inter, Arial, sans-serif" text-anchor="middle">
    <g transform="translate(100 530)">
      <circle r="40" fill="#ffcf74"/><text y="8" font-size="22" font-weight="700" fill="#402400">0</text>
      <text y="68" font-size="18" fill="#fff4dd">Mapa</text>
    </g>
    <g transform="translate(260 340)">
      <circle r="34" fill="#8ee7ff"/><text y="8" font-size="20" font-weight="700" fill="#12354d">1</text>
      <text y="62" font-size="16" fill="#dff9ff">Cliente</text>
    </g>
    <g transform="translate(430 250)">
      <circle r="34" fill="#8ee7ff"/><text y="8" font-size="20" font-weight="700" fill="#12354d">2</text>
      <text y="62" font-size="16" fill="#dff9ff">Motivos</text>
    </g>
    <g transform="translate(610 265)">
      <circle r="34" fill="#8ee7ff"/><text y="8" font-size="20" font-weight="700" fill="#12354d">3</text>
      <text y="62" font-size="16" fill="#dff9ff">Compra</text>
    </g>
    <g transform="translate(715 165)">
      <circle r="34" fill="#8ee7ff"/><text y="8" font-size="20" font-weight="700" fill="#12354d">4</text>
      <text y="62" font-size="16" fill="#dff9ff">Elementos</text>
    </g>
    <g transform="translate(790 98)">
      <circle r="34" fill="#8ee7ff"/><text y="8" font-size="20" font-weight="700" fill="#12354d">5</text>
      <text y="62" font-size="16" fill="#dff9ff">Depto.</text>
    </g>
    <g transform="translate(835 55)">
      <circle r="34" fill="#ffcf74"/><text y="8" font-size="20" font-weight="700" fill="#402400">6</text>
      <text y="62" font-size="16" fill="#fff4dd">Comunicación</text>
    </g>
  </g>
  <g opacity=".18" fill="#ffffff">
    <circle cx="135" cy="110" r="5"/><circle cx="250" cy="80" r="3"/><circle cx="770" cy="400" r="4"/><circle cx="845" cy="240" r="4"/>
    <circle cx="515" cy="120" r="3"/><circle cx="620" cy="500" r="4"/><circle cx="350" cy="480" r="3"/>
  </g>
</svg>